<svg xmlns="http://www.w3.org/2000/svg" version="1.1" xmlns:xlink="http://www.w3.org/1999/xlink" xmlns:svgjs="http://svgjs.dev/svgjs" width="1440" height="250" preserveAspectRatio="none" viewBox="0 0 1440 250"><g mask="url(&quot;#SvgjsMask1012&quot;)" fill="none"><rect width="1440" height="250" x="0" y="0" fill="rgba(23, 142, 181, 0.31)"></rect><path d="M16 250L266 0L603.5 0L353.5 250z" fill="url(&quot;#SvgjsLinearGradient1013&quot;)"></path><path d="M280.6 250L530.6 0L617.6 0L367.6 250z" fill="url(&quot;#SvgjsLinearGradient1013&quot;)"></path><path d="M487.20000000000005 250L737.2 0L1065.7 0L815.7 250z" fill="url(&quot;#SvgjsLinearGradient1013&quot;)"></path><path d="M747.8000000000001 250L997.8000000000001 0L1179.3000000000002 0L929.3000000000001 250z" fill="url(&quot;#SvgjsLinearGradient1013&quot;)"></path><path d="M1419 250L1169 0L962 0L1212 250z" fill="url(&quot;#SvgjsLinearGradient1014&quot;)"></path><path d="M1199.4 250L949.4000000000001 0L692.9000000000001 0L942.9000000000001 250z" fill="url(&quot;#SvgjsLinearGradient1014&quot;)"></path><path d="M926.8 250L676.8 0L631.8 0L881.8 250z" fill="url(&quot;#SvgjsLinearGradient1014&quot;)"></path><path d="M706.1999999999999 250L456.19999999999993 0L180.19999999999993 0L430.19999999999993 250z" fill="url(&quot;#SvgjsLinearGradient1014&quot;)"></path><path d="M1216.0329232173628 250L1440 26.032923217362878L1440 250z" fill="url(&quot;#SvgjsLinearGradient1013&quot;)"></path><path d="M0 250L223.96707678263712 250L 0 26.032923217362878z" fill="url(&quot;#SvgjsLinearGradient1014&quot;)"></path></g><defs><mask id="SvgjsMask1012"><rect width="1440" height="250" fill="#ffffff"></rect></mask><linearGradient x1="0%" y1="100%" x2="100%" y2="0%" id="SvgjsLinearGradient1013"><stop stop-color="rgba(83, 92, 112, 0.2)" offset="0"></stop><stop stop-opacity="0" stop-color="rgba(83, 92, 112, 0.2)" offset="0.66"></stop></linearGradient><linearGradient x1="100%" y1="100%" x2="0%" y2="0%" id="SvgjsLinearGradient1014"><stop stop-color="rgba(83, 92, 112, 0.2)" offset="0"></stop><stop stop-opacity="0" stop-color="rgba(83, 92, 112, 0.2)" offset="0.66"></stop></linearGradient></defs></svg>